<mxfile host="Electron" agent="Mozilla/5.0 (X11; Linux x86_64) AppleWebKit/537.36 (KHTML, like Gecko) draw.io/26.0.9 Chrome/128.0.6613.186 Electron/32.2.5 Safari/537.36" version="26.0.9">
  <diagram name="Page-1" id="qCoTIrj2VNQ7BLIhpHyW">
    <mxGraphModel dx="1173" dy="879" grid="1" gridSize="10" guides="1" tooltips="1" connect="1" arrows="1" fold="1" page="1" pageScale="1" pageWidth="850" pageHeight="1100" math="0" shadow="0">
      <root>
        <mxCell id="0" />
        <mxCell id="1" parent="0" />
        <mxCell id="A-PpN8_tTmoUj-WkjNDf-2" value="" style="edgeStyle=orthogonalEdgeStyle;rounded=0;orthogonalLoop=1;jettySize=auto;html=1;" edge="1" parent="1" source="anH82EzABGfWAVoPL1vo-1" target="A-PpN8_tTmoUj-WkjNDf-1">
          <mxGeometry relative="1" as="geometry" />
        </mxCell>
        <mxCell id="anH82EzABGfWAVoPL1vo-1" value="Start" style="ellipse;whiteSpace=wrap;html=1;" parent="1" vertex="1">
          <mxGeometry x="380" y="20" width="120" height="80" as="geometry" />
        </mxCell>
        <mxCell id="A-PpN8_tTmoUj-WkjNDf-27" value="" style="edgeStyle=orthogonalEdgeStyle;rounded=0;orthogonalLoop=1;jettySize=auto;html=1;" edge="1" parent="1" source="A-PpN8_tTmoUj-WkjNDf-1" target="A-PpN8_tTmoUj-WkjNDf-22">
          <mxGeometry relative="1" as="geometry" />
        </mxCell>
        <mxCell id="A-PpN8_tTmoUj-WkjNDf-1" value="j = 0&lt;div&gt;OLD=0&lt;/div&gt;&lt;div&gt;i = 0&lt;/div&gt;&lt;div&gt;Swap = 1&lt;/div&gt;&lt;div&gt;arr&lt;/div&gt;&lt;div&gt;n - lenght arr&lt;/div&gt;" style="shape=parallelogram;perimeter=parallelogramPerimeter;whiteSpace=wrap;html=1;fixedSize=1;" vertex="1" parent="1">
          <mxGeometry x="370" y="190" width="140" height="100" as="geometry" />
        </mxCell>
        <mxCell id="A-PpN8_tTmoUj-WkjNDf-29" style="edgeStyle=orthogonalEdgeStyle;rounded=0;orthogonalLoop=1;jettySize=auto;html=1;" edge="1" parent="1" source="A-PpN8_tTmoUj-WkjNDf-3">
          <mxGeometry relative="1" as="geometry">
            <mxPoint x="620" y="580" as="targetPoint" />
          </mxGeometry>
        </mxCell>
        <mxCell id="A-PpN8_tTmoUj-WkjNDf-49" style="edgeStyle=orthogonalEdgeStyle;rounded=0;orthogonalLoop=1;jettySize=auto;html=1;" edge="1" parent="1" source="A-PpN8_tTmoUj-WkjNDf-3">
          <mxGeometry relative="1" as="geometry">
            <mxPoint x="450" y="510" as="targetPoint" />
          </mxGeometry>
        </mxCell>
        <mxCell id="A-PpN8_tTmoUj-WkjNDf-3" value="j = n-1" style="rhombus;whiteSpace=wrap;html=1;" vertex="1" parent="1">
          <mxGeometry x="490" y="470" width="80" height="80" as="geometry" />
        </mxCell>
        <mxCell id="A-PpN8_tTmoUj-WkjNDf-7" value="N" style="text;html=1;align=center;verticalAlign=middle;resizable=0;points=[];autosize=1;strokeColor=none;fillColor=none;" vertex="1" parent="1">
          <mxGeometry x="485" y="348" width="30" height="30" as="geometry" />
        </mxCell>
        <mxCell id="A-PpN8_tTmoUj-WkjNDf-8" value="J" style="text;html=1;align=center;verticalAlign=middle;resizable=0;points=[];autosize=1;strokeColor=none;fillColor=none;" vertex="1" parent="1">
          <mxGeometry x="355" y="348" width="30" height="30" as="geometry" />
        </mxCell>
        <mxCell id="A-PpN8_tTmoUj-WkjNDf-13" value="" style="edgeStyle=orthogonalEdgeStyle;rounded=0;orthogonalLoop=1;jettySize=auto;html=1;" edge="1" parent="1" source="A-PpN8_tTmoUj-WkjNDf-10" target="A-PpN8_tTmoUj-WkjNDf-12">
          <mxGeometry relative="1" as="geometry" />
        </mxCell>
        <mxCell id="A-PpN8_tTmoUj-WkjNDf-10" value="result arr" style="shape=parallelogram;perimeter=parallelogramPerimeter;whiteSpace=wrap;html=1;fixedSize=1;" vertex="1" parent="1">
          <mxGeometry x="220" y="540" width="120" height="60" as="geometry" />
        </mxCell>
        <mxCell id="A-PpN8_tTmoUj-WkjNDf-12" value="End" style="ellipse;whiteSpace=wrap;html=1;" vertex="1" parent="1">
          <mxGeometry x="225" y="680" width="110" height="80" as="geometry" />
        </mxCell>
        <mxCell id="A-PpN8_tTmoUj-WkjNDf-17" value="" style="edgeStyle=orthogonalEdgeStyle;rounded=0;orthogonalLoop=1;jettySize=auto;html=1;" edge="1" parent="1" source="A-PpN8_tTmoUj-WkjNDf-15" target="A-PpN8_tTmoUj-WkjNDf-16">
          <mxGeometry relative="1" as="geometry" />
        </mxCell>
        <mxCell id="A-PpN8_tTmoUj-WkjNDf-15" value="Swap = 0" style="rounded=0;whiteSpace=wrap;html=1;" vertex="1" parent="1">
          <mxGeometry x="560" y="580" width="120" height="40" as="geometry" />
        </mxCell>
        <mxCell id="A-PpN8_tTmoUj-WkjNDf-30" style="edgeStyle=orthogonalEdgeStyle;rounded=0;orthogonalLoop=1;jettySize=auto;html=1;" edge="1" parent="1" source="A-PpN8_tTmoUj-WkjNDf-16">
          <mxGeometry relative="1" as="geometry">
            <mxPoint x="520" y="840" as="targetPoint" />
          </mxGeometry>
        </mxCell>
        <mxCell id="A-PpN8_tTmoUj-WkjNDf-46" style="edgeStyle=orthogonalEdgeStyle;rounded=0;orthogonalLoop=1;jettySize=auto;html=1;entryX=0.5;entryY=1;entryDx=0;entryDy=0;" edge="1" parent="1" source="A-PpN8_tTmoUj-WkjNDf-16" target="A-PpN8_tTmoUj-WkjNDf-43">
          <mxGeometry relative="1" as="geometry">
            <mxPoint x="740" y="740" as="targetPoint" />
            <Array as="points">
              <mxPoint x="740" y="760" />
            </Array>
          </mxGeometry>
        </mxCell>
        <mxCell id="A-PpN8_tTmoUj-WkjNDf-16" value="num[j] &amp;gt;&lt;div&gt;num[j+1]&lt;/div&gt;" style="rhombus;whiteSpace=wrap;html=1;rounded=0;" vertex="1" parent="1">
          <mxGeometry x="580" y="700" width="80" height="80" as="geometry" />
        </mxCell>
        <mxCell id="A-PpN8_tTmoUj-WkjNDf-23" style="edgeStyle=orthogonalEdgeStyle;rounded=0;orthogonalLoop=1;jettySize=auto;html=1;entryX=0.383;entryY=0.034;entryDx=0;entryDy=0;entryPerimeter=0;" edge="1" parent="1" source="A-PpN8_tTmoUj-WkjNDf-22" target="A-PpN8_tTmoUj-WkjNDf-10">
          <mxGeometry relative="1" as="geometry">
            <mxPoint x="270" y="470" as="targetPoint" />
          </mxGeometry>
        </mxCell>
        <mxCell id="A-PpN8_tTmoUj-WkjNDf-24" style="edgeStyle=orthogonalEdgeStyle;rounded=0;orthogonalLoop=1;jettySize=auto;html=1;entryX=0.5;entryY=0;entryDx=0;entryDy=0;" edge="1" parent="1" source="A-PpN8_tTmoUj-WkjNDf-22" target="A-PpN8_tTmoUj-WkjNDf-3">
          <mxGeometry relative="1" as="geometry">
            <mxPoint x="550" y="400" as="targetPoint" />
          </mxGeometry>
        </mxCell>
        <mxCell id="A-PpN8_tTmoUj-WkjNDf-22" value="Swap == 0?" style="rhombus;whiteSpace=wrap;html=1;" vertex="1" parent="1">
          <mxGeometry x="400" y="360" width="80" height="80" as="geometry" />
        </mxCell>
        <mxCell id="A-PpN8_tTmoUj-WkjNDf-25" value="j" style="text;html=1;align=center;verticalAlign=middle;resizable=0;points=[];autosize=1;strokeColor=none;fillColor=none;" vertex="1" parent="1">
          <mxGeometry x="480" y="460" width="30" height="30" as="geometry" />
        </mxCell>
        <mxCell id="A-PpN8_tTmoUj-WkjNDf-26" value="n" style="text;html=1;align=center;verticalAlign=middle;resizable=0;points=[];autosize=1;strokeColor=none;fillColor=none;" vertex="1" parent="1">
          <mxGeometry x="570" y="470" width="30" height="30" as="geometry" />
        </mxCell>
        <mxCell id="A-PpN8_tTmoUj-WkjNDf-32" value="Y" style="text;html=1;align=center;verticalAlign=middle;resizable=0;points=[];autosize=1;strokeColor=none;fillColor=none;" vertex="1" parent="1">
          <mxGeometry x="665" y="708" width="30" height="30" as="geometry" />
        </mxCell>
        <mxCell id="A-PpN8_tTmoUj-WkjNDf-33" value="N" style="text;html=1;align=center;verticalAlign=middle;resizable=0;points=[];autosize=1;strokeColor=none;fillColor=none;" vertex="1" parent="1">
          <mxGeometry x="545" y="708" width="30" height="30" as="geometry" />
        </mxCell>
        <mxCell id="A-PpN8_tTmoUj-WkjNDf-36" value="" style="edgeStyle=orthogonalEdgeStyle;rounded=0;orthogonalLoop=1;jettySize=auto;html=1;" edge="1" parent="1" source="A-PpN8_tTmoUj-WkjNDf-34" target="A-PpN8_tTmoUj-WkjNDf-35">
          <mxGeometry relative="1" as="geometry" />
        </mxCell>
        <mxCell id="A-PpN8_tTmoUj-WkjNDf-34" value="OLD= arr[j]&amp;nbsp;" style="rounded=0;whiteSpace=wrap;html=1;" vertex="1" parent="1">
          <mxGeometry x="452" y="840" width="120" height="60" as="geometry" />
        </mxCell>
        <mxCell id="A-PpN8_tTmoUj-WkjNDf-38" value="" style="edgeStyle=orthogonalEdgeStyle;rounded=0;orthogonalLoop=1;jettySize=auto;html=1;" edge="1" parent="1" source="A-PpN8_tTmoUj-WkjNDf-35" target="A-PpN8_tTmoUj-WkjNDf-37">
          <mxGeometry relative="1" as="geometry" />
        </mxCell>
        <mxCell id="A-PpN8_tTmoUj-WkjNDf-35" value="arr[j]= num[j+1]&amp;nbsp;" style="rounded=0;whiteSpace=wrap;html=1;" vertex="1" parent="1">
          <mxGeometry x="452" y="980" width="120" height="60" as="geometry" />
        </mxCell>
        <mxCell id="A-PpN8_tTmoUj-WkjNDf-40" value="" style="edgeStyle=orthogonalEdgeStyle;rounded=0;orthogonalLoop=1;jettySize=auto;html=1;" edge="1" parent="1" source="A-PpN8_tTmoUj-WkjNDf-37" target="A-PpN8_tTmoUj-WkjNDf-39">
          <mxGeometry relative="1" as="geometry" />
        </mxCell>
        <mxCell id="A-PpN8_tTmoUj-WkjNDf-37" value="num[j+1] = OLD" style="rounded=0;whiteSpace=wrap;html=1;" vertex="1" parent="1">
          <mxGeometry x="452" y="1120" width="120" height="60" as="geometry" />
        </mxCell>
        <mxCell id="A-PpN8_tTmoUj-WkjNDf-47" style="edgeStyle=orthogonalEdgeStyle;rounded=0;orthogonalLoop=1;jettySize=auto;html=1;" edge="1" parent="1" source="A-PpN8_tTmoUj-WkjNDf-39">
          <mxGeometry relative="1" as="geometry">
            <mxPoint x="740" y="760" as="targetPoint" />
            <Array as="points">
              <mxPoint x="512" y="1420" />
            </Array>
          </mxGeometry>
        </mxCell>
        <mxCell id="A-PpN8_tTmoUj-WkjNDf-39" value="Swap ++" style="whiteSpace=wrap;html=1;rounded=0;" vertex="1" parent="1">
          <mxGeometry x="452" y="1220" width="120" height="60" as="geometry" />
        </mxCell>
        <mxCell id="A-PpN8_tTmoUj-WkjNDf-53" style="edgeStyle=orthogonalEdgeStyle;rounded=0;orthogonalLoop=1;jettySize=auto;html=1;" edge="1" parent="1" source="A-PpN8_tTmoUj-WkjNDf-43">
          <mxGeometry relative="1" as="geometry">
            <mxPoint x="530" y="440" as="targetPoint" />
            <Array as="points">
              <mxPoint x="790" y="430" />
            </Array>
          </mxGeometry>
        </mxCell>
        <mxCell id="A-PpN8_tTmoUj-WkjNDf-43" value="j ++" style="rounded=0;whiteSpace=wrap;html=1;" vertex="1" parent="1">
          <mxGeometry x="680" y="630" width="120" height="60" as="geometry" />
        </mxCell>
        <mxCell id="A-PpN8_tTmoUj-WkjNDf-50" value="A" style="ellipse;whiteSpace=wrap;html=1;aspect=fixed;" vertex="1" parent="1">
          <mxGeometry x="370" y="470" width="80" height="80" as="geometry" />
        </mxCell>
        <mxCell id="A-PpN8_tTmoUj-WkjNDf-52" style="edgeStyle=orthogonalEdgeStyle;rounded=0;orthogonalLoop=1;jettySize=auto;html=1;" edge="1" parent="1" source="A-PpN8_tTmoUj-WkjNDf-51">
          <mxGeometry relative="1" as="geometry">
            <mxPoint x="440" y="330" as="targetPoint" />
          </mxGeometry>
        </mxCell>
        <mxCell id="A-PpN8_tTmoUj-WkjNDf-51" value="A" style="ellipse;whiteSpace=wrap;html=1;aspect=fixed;" vertex="1" parent="1">
          <mxGeometry x="225" y="290" width="80" height="80" as="geometry" />
        </mxCell>
      </root>
    </mxGraphModel>
  </diagram>
</mxfile>
